<svg xmlns="http://www.w3.org/2000/svg" xmlns:xlink="http://www.w3.org/1999/xlink" version="1.1" viewBox="0 0 1200 500" xml:space="preserve">
<!-- Based on an emoji provided free by http://emojione.com -->

  <style>
    .text {
      fill: #FFFFFF;
    }

    .responsive-text {
      transform-origin: 600px 250px;
      transform: scale(0.5, 0.5);

      transition: 300ms ease;
    }

    @media screen and (max-width: 750px) {
      .responsive-text {
        transform: scale(0.7, 0.7);
      }
    }

    @media screen and (max-width: 450px) {
      .responsive-text {
        transform: scale(1, 1);
      }
    }

    @media print {
      .text {
        fill: #000
      }

      .responsive-text {
        transform: scale(1, 1);
      }

      .background {
        display: none;
      }
    }
  </style>

  <defs>
    <rect id="rect_clip_shape" width="1200" height="500"/>
    <circle id="logo_clip_shape" cx="196.5" cy="250.02" r="124.15"/>
  </defs>
  <clipPath id="rect_mask">
    <use xlink:href="#rect_clip_shape" overflow="visible"/>
  </clipPath>
  <clipPath id="logo_mask">
    <use xlink:href="#logo_clip_shape" overflow="visible"/>
  </clipPath>

  <g id="orange_back" class="background">
    <radialGradient id="main_gradient" cx="400" cy="240.5" r="459.62" gradientTransform="matrix(1.5 0 0 1 0 240.5)" gradientUnits="userSpaceOnUse">
      <stop offset="0" style="stop-color:#FEE886"/>
      <stop offset="0.0807" style="stop-color:#FEE581"/>
      <stop offset="0.1779" style="stop-color:#FDDA74"/>
      <stop offset="0.2836" style="stop-color:#FCC85D"/>
      <stop offset="0.3944" style="stop-color:#FAAE3C"/>
      <stop offset="0.4946" style="stop-color:#F7941E"/>
      <stop offset="0.828" style="stop-color:#F05961"/>
      <stop offset="0.909" style="stop-color:#E1555B"/>
      <stop offset="1" style="stop-color:#CE5052"/>
    </radialGradient>
    <rect x="-300" y="-19" width="1800" height="1000" style="clip-path:url(#rect_mask);fill:url(#main_gradient);"/>
  </g>

  <g id="text" class="responsive-text">
    <path class="text" d="M447.49 216.82c4.18 0 8.05 0.52 11.62 1.54 3.57 1.03 6.77 2.48 9.6 4.34h24.6v3.18c0 1.61-0.9 2.48-2.7 2.6l-14.56 1.06c1.8 2.44 3.18 5.19 4.15 8.25 0.96 3.06 1.45 6.32 1.45 9.79 0 4.63-0.84 8.82-2.51 12.59 -1.67 3.76-4 6.98-6.99 9.65 -2.99 2.67-6.57 4.74-10.75 6.22 -4.18 1.48-8.81 2.22-13.89 2.22 -5.53 0-10.55-0.83-15.05-2.51 -2.7 1.54-4.82 3.38-6.37 5.5 -1.54 2.12-2.31 4.18-2.31 6.17 0 2.77 0.97 4.89 2.89 6.37 1.93 1.48 4.49 2.56 7.67 3.23 3.18 0.68 6.82 1.11 10.9 1.3 4.08 0.19 8.23 0.4 12.44 0.63 4.21 0.23 8.36 0.63 12.44 1.21 4.08 0.58 7.72 1.59 10.9 3.04 3.18 1.45 5.74 3.47 7.67 6.08 1.93 2.6 2.89 6.06 2.89 10.37 0 3.99-1 7.81-2.99 11.48 -1.99 3.67-4.87 6.91-8.63 9.74 -3.76 2.83-8.31 5.1-13.65 6.8 -5.34 1.7-11.32 2.56-17.94 2.56 -6.75 0-12.67-0.69-17.75-2.07 -5.08-1.38-9.34-3.25-12.78-5.59 -3.44-2.35-6.03-5.06-7.76-8.15 -1.74-3.09-2.6-6.36-2.6-9.84 0-5.08 1.67-9.45 5.01-13.12 3.34-3.66 7.94-6.49 13.79-8.49 -3.22-1.09-5.77-2.67-7.67-4.73 -1.9-2.06-2.85-4.92-2.85-8.58 0-1.35 0.26-2.76 0.77-4.24 0.51-1.48 1.29-2.94 2.31-4.39 1.03-1.45 2.27-2.81 3.71-4.1 1.45-1.28 3.14-2.44 5.06-3.47 -4.57-2.64-8.12-6.14-10.66-10.51 -2.54-4.37-3.81-9.48-3.81-15.33 0-4.63 0.82-8.83 2.46-12.59 1.64-3.76 3.96-6.99 6.94-9.69 2.99-2.7 6.61-4.79 10.85-6.27C437.65 217.56 442.34 216.82 447.49 216.82zM483.08 320.89c0-3.02-0.79-5.45-2.36-7.28 -1.58-1.83-3.68-3.26-6.32-4.29 -2.64-1.03-5.67-1.75-9.11-2.17 -3.44-0.42-7.04-0.72-10.8-0.92 -3.76-0.19-7.54-0.39-11.33-0.58 -3.79-0.19-7.33-0.58-10.61-1.16 -2.44 0.97-4.71 2.07-6.8 3.33 -2.09 1.25-3.87 2.67-5.35 4.24 -1.48 1.58-2.64 3.31-3.47 5.21 -0.84 1.9-1.25 3.97-1.25 6.22 0 2.83 0.72 5.45 2.17 7.86s3.57 4.5 6.37 6.27c2.8 1.77 6.22 3.17 10.27 4.2 4.05 1.03 8.71 1.54 13.99 1.54 4.89 0 9.44-0.55 13.65-1.64 4.21-1.09 7.88-2.64 11-4.63 3.12-1.99 5.56-4.37 7.33-7.14C482.19 327.19 483.08 324.16 483.08 320.89zM447.49 271.98c4.11 0 7.78-0.59 11-1.78 3.22-1.19 5.92-2.84 8.1-4.97 2.19-2.12 3.84-4.66 4.97-7.62 1.12-2.96 1.69-6.24 1.69-9.84 0-3.6-0.58-6.9-1.74-9.89s-2.84-5.55-5.06-7.67c-2.22-2.12-4.92-3.76-8.1-4.92 -3.18-1.16-6.8-1.74-10.85-1.74s-7.68 0.58-10.9 1.74c-3.22 1.16-5.93 2.8-8.15 4.92 -2.22 2.12-3.91 4.68-5.06 7.67 -1.16 2.99-1.74 6.29-1.74 9.89 0 3.6 0.58 6.88 1.74 9.84 1.16 2.96 2.85 5.5 5.06 7.62 2.22 2.12 4.93 3.78 8.15 4.97C439.8 271.39 443.44 271.98 447.49 271.98zM513.17 314.42v-95.97h4.82c1.09 0 1.88 0.23 2.36 0.68 0.48 0.45 0.76 1.22 0.82 2.32l0.77 20.25c3.09-7.78 7.2-13.87 12.35-18.28 5.14-4.4 11.48-6.61 19-6.61 2.89 0 5.56 0.31 8.01 0.92 2.44 0.61 4.76 1.5 6.94 2.65l-1.25 6.37c-0.19 1.03-0.84 1.54-1.93 1.54 -0.39 0-0.93-0.13-1.64-0.39 -0.71-0.26-1.59-0.55-2.65-0.87 -1.06-0.32-2.36-0.61-3.91-0.87 -1.54-0.26-3.31-0.39-5.3-0.39 -7.27 0-13.23 2.25-17.89 6.75 -4.66 4.5-8.44 11-11.33 19.48v62.4H513.17zM646.17 314.42c-1.93 0-3.12-0.9-3.57-2.7l-1.35-12.25c-2.64 2.57-5.26 4.89-7.86 6.94 -2.6 2.06-5.32 3.8-8.15 5.21 -2.83 1.42-5.88 2.49-9.16 3.23 -3.28 0.74-6.88 1.11-10.8 1.11 -3.28 0-6.46-0.48-9.55-1.45 -3.09-0.96-5.82-2.44-8.2-4.44 -2.38-1.99-4.29-4.55-5.74-7.67 -1.45-3.12-2.17-6.86-2.17-11.24 0-4.05 1.16-7.81 3.47-11.28s5.93-6.49 10.85-9.07c4.92-2.57 11.25-4.63 19-6.17 7.75-1.54 17.06-2.44 27.92-2.7v-10.03c0-8.87-1.91-15.7-5.74-20.5 -3.83-4.79-9.5-7.19-17.02-7.19 -4.63 0-8.57 0.64-11.81 1.93 -3.25 1.29-6 2.7-8.25 4.24 -2.25 1.54-4.08 2.96-5.5 4.24 -1.41 1.29-2.6 1.93-3.57 1.93 -1.29 0-2.25-0.58-2.89-1.74l-1.64-2.8c5.02-5.02 10.29-8.81 15.82-11.38 5.53-2.57 11.8-3.86 18.81-3.86 5.15 0 9.65 0.82 13.5 2.46 3.86 1.64 7.06 3.99 9.6 7.04 2.54 3.06 4.45 6.75 5.74 11.09 1.29 4.34 1.93 9.18 1.93 14.52v62.5H646.17zM607.59 309.31c3.73 0 7.15-0.4 10.27-1.2 3.12-0.8 6.01-1.93 8.68-3.38 2.67-1.45 5.16-3.17 7.48-5.16 2.32-1.99 4.6-4.15 6.85-6.46v-24.98c-9.13 0.26-16.99 0.95-23.58 2.07 -6.59 1.13-12.02 2.65-16.3 4.58 -4.28 1.93-7.43 4.23-9.45 6.9 -2.02 2.67-3.04 5.71-3.04 9.12 0 3.22 0.53 6 1.59 8.34 1.06 2.35 2.46 4.28 4.2 5.79 1.74 1.51 3.76 2.62 6.08 3.33C602.67 308.96 605.08 309.31 607.59 309.31zM678.77 314.42v-95.97h5.02c1.67 0 2.64 0.81 2.89 2.41l0.87 14.47c4.37-5.53 9.47-9.98 15.29-13.36 5.82-3.38 12.3-5.06 19.43-5.06 5.27 0 9.92 0.84 13.94 2.51 4.02 1.67 7.35 4.08 9.98 7.23 2.64 3.15 4.63 6.94 5.98 11.38 1.35 4.44 2.03 9.45 2.03 15.05v61.34h-9.16V253.08c0-9-2.06-16.06-6.17-21.17 -4.12-5.11-10.42-7.67-18.9-7.67 -6.3 0-12.15 1.63-17.55 4.87 -5.4 3.25-10.22 7.7-14.47 13.36v71.95H678.77zM851.19 314.42c-1.59 0-2.51-0.83-2.76-2.51l-0.97-15.14c-4.25 5.79-9.22 10.39-14.92 13.79 -5.7 3.41-12.09 5.11-19.17 5.11 -11.78 0-20.97-4.08-27.57-12.25 -6.6-8.16-9.9-20.41-9.9-36.75 0-7.01 0.92-13.55 2.75-19.63 1.84-6.08 4.54-11.35 8.11-15.82 3.57-4.47 7.95-7.99 13.14-10.56 5.18-2.57 11.16-3.86 17.92-3.86 6.5 0 12.14 1.21 16.9 3.62 4.76 2.41 8.89 5.93 12.36 10.56v-56.91h9.16v140.34H851.19zM815.97 308.25c6.37 0 12.14-1.64 17.29-4.92 5.15-3.28 9.76-7.84 13.81-13.7v-50.64c-3.73-5.46-7.84-9.32-12.32-11.57 -4.48-2.25-9.55-3.38-15.22-3.38 -5.67 0-10.63 1.03-14.88 3.09 -4.25 2.06-7.81 4.97-10.67 8.73 -2.87 3.76-5.02 8.26-6.47 13.5 -1.45 5.24-2.17 11.01-2.17 17.31 0 14.27 2.64 24.77 7.92 31.49C798.55 304.89 806.11 308.25 815.97 308.25zM888.45 314.42v-95.97h5.02c1.67 0 2.64 0.81 2.89 2.41l0.87 13.89c1.86-2.64 3.86-5.05 5.98-7.23 2.12-2.18 4.39-4.07 6.8-5.64 2.41-1.57 4.98-2.8 7.72-3.67 2.73-0.87 5.61-1.3 8.63-1.3 7.01 0 12.6 2.04 16.78 6.13 4.18 4.08 7.01 9.76 8.49 17.02 1.15-3.99 2.78-7.43 4.86-10.32 2.09-2.89 4.48-5.29 7.17-7.19 2.7-1.9 5.63-3.31 8.81-4.24 3.18-0.93 6.44-1.4 9.77-1.4 4.75 0 9.02 0.79 12.81 2.36 3.79 1.58 7.01 3.91 9.68 6.99 2.66 3.09 4.7 6.88 6.12 11.38 1.41 4.5 2.12 9.65 2.12 15.43v61.34h-9.16V253.08c0-9.39-2.02-16.54-6.08-21.46s-9.84-7.38-17.36-7.38c-3.34 0-6.54 0.61-9.6 1.83 -3.05 1.22-5.75 3.04-8.1 5.45 -2.35 2.41-4.21 5.42-5.59 9.02 -1.38 3.6-2.07 7.78-2.07 12.54v61.34h-9.16V253.08c0-9.32-1.86-16.46-5.59-21.41 -3.73-4.95-9.16-7.43-16.3-7.43 -5.21 0-10.03 1.56-14.47 4.68 -4.44 3.12-8.39 7.44-11.86 12.97v72.53H888.45zM1103.14 314.42c-1.93 0-3.12-0.9-3.57-2.7l-1.35-12.25c-2.64 2.57-5.26 4.89-7.86 6.94 -2.6 2.06-5.32 3.8-8.15 5.21 -2.83 1.42-5.88 2.49-9.16 3.23 -3.28 0.74-6.88 1.11-10.8 1.11 -3.28 0-6.46-0.48-9.55-1.45 -3.09-0.96-5.82-2.44-8.2-4.44 -2.38-1.99-4.29-4.55-5.74-7.67 -1.45-3.12-2.17-6.86-2.17-11.24 0-4.05 1.16-7.81 3.47-11.28 2.32-3.47 5.93-6.49 10.85-9.07 4.92-2.57 11.25-4.63 19-6.17 7.75-1.54 17.06-2.44 27.92-2.7v-10.03c0-8.87-1.91-15.7-5.74-20.5 -3.83-4.79-9.5-7.19-17.02-7.19 -4.63 0-8.57 0.64-11.81 1.93 -3.25 1.29-6 2.7-8.25 4.24 -2.25 1.54-4.08 2.96-5.5 4.24 -1.41 1.29-2.6 1.93-3.57 1.93 -1.29 0-2.25-0.58-2.89-1.74l-1.64-2.8c5.02-5.02 10.29-8.81 15.82-11.38 5.53-2.57 11.8-3.86 18.81-3.86 5.14 0 9.65 0.82 13.5 2.46s7.06 3.99 9.6 7.04c2.54 3.06 4.45 6.75 5.74 11.09 1.29 4.34 1.93 9.18 1.93 14.52v62.5H1103.14zM1064.56 309.31c3.73 0 7.15-0.4 10.27-1.2 3.12-0.8 6.01-1.93 8.68-3.38 2.67-1.45 5.16-3.17 7.48-5.16 2.32-1.99 4.6-4.15 6.85-6.46v-24.98c-9.13 0.26-16.99 0.95-23.58 2.07 -6.59 1.13-12.02 2.65-16.3 4.58 -4.28 1.93-7.43 4.23-9.45 6.9 -2.02 2.67-3.04 5.71-3.04 9.12 0 3.22 0.53 6 1.59 8.34 1.06 2.35 2.46 4.28 4.2 5.79s3.76 2.62 6.08 3.33C1059.65 308.96 1062.06 309.31 1064.56 309.31z" />
    <g clip-path="url(#logo_mask)">
      <path class="text" d="M176.51 264.92c0.33-0.27 0.64-0.57 0.94-0.88 1.14 3.86 8.86 8.09 18.23 8.09 9.35 0 17.07-4.24 18.23-8.1 0.31 0.31 0.62 0.61 0.95 0.89 1.08 0.87 2.24 1.6 3.51 2.12 1.26 0.52 2.61 0.9 4.02 0.89 -2.08-1.82-4.07-3.25-5.95-4.85 -1.92-1.57-3.59-3.2-5.5-5.19 0.06 1.5 0.59 2.91 1.39 4.18 -2.58 0.97-8.99 3.03-16.65 3.03 -7.62 0-14.04-2.03-16.67-3.01 0.81-1.27 1.35-2.69 1.4-4.2 -1.9 2-3.58 3.63-5.49 5.2 -1.88 1.6-3.88 3.03-5.95 4.85 1.41 0.01 2.76-0.36 4.02-0.89C174.26 266.52 175.44 265.79 176.51 264.92zM320.65 250.02c0-68.57-55.58-124.15-124.15-124.15 -68.57 0-124.15 55.58-124.15 124.15 0 42.4 21.27 79.83 53.72 102.23 0.53 7.87 3.19 16.12 11.61 17.97 0.28 0.06 29.73 6.27 58.76 6.94 1.36 0.03 2.75 0.04 4.16 0.04 0 0 0 0 0 0 14.98 0 29.08-1.77 37.5-2.83 3.29-0.41 6.12-0.77 7.16-0.77 6.98 0 12.43-2.35 16.21-6.99 3.31-4.06 4.78-9.3 5.35-14.27C299.33 329.94 320.65 292.48 320.65 250.02zM165.7 254.6c12.16 0 22.01-9.88 22.01-22.07 0-0.3-0.03-0.6-0.05-0.9 5.08-0.52 10.58-0.79 16.39-0.56 -0.03 0.49-0.07 0.97-0.07 1.47 0 12.19 9.86 22.07 22.02 22.07 12.15 0 22.01-9.88 22.01-22.06 0-4.18-1.18-8.07-3.19-11.4 4.93 4.47 8.44 8.65 10.55 11.44l0.02 15.64c0 19.11-15.15 31.35-42.17 34.73 -1.13 0.14-2.27 0.27-3.42 0.37 -0.27 0.03-0.56 0.04-0.83 0.07 -0.93 0.08-1.87 0.15-2.82 0.22 -0.63 0.04-1.26 0.08-1.9 0.11 -0.42 0.02-0.84 0.04-1.27 0.06 -1.99 0.08-4.03 0.13-6.12 0.13 -41.87 0-60.62-17.92-60.62-35.7l-0.09-15.37c2.08-2.79 5.64-7.1 10.75-11.73 -2.03 3.34-3.21 7.24-3.21 11.44C143.69 244.72 153.54 254.6 165.7 254.6zM173.5 204.68c6.49-2.46 18.06-6.98 23.07-9.31 5.99 2.99 13.12 6.1 21.59 9.31 4.92 1.87 9.36 4.11 13.34 6.51 -1.77-0.45-3.6-0.72-5.51-0.72 -9.05 0-16.82 5.48-20.2 13.32 -7.03-0.37-13.64-0.04-19.64 0.61 -3.23-8.15-11.16-13.92-20.45-13.92 -1.93 0-3.78 0.27-5.56 0.74C164.12 208.79 168.57 206.54 173.5 204.68zM163.47 163.41c6.22-7.22 18.36-12.13 32.36-12.13 14 0 26.15 4.92 32.36 12.14 -9.16-2.92-19.9-4.65-32.36-4.65C182.24 158.76 166.2 162.54 163.47 163.41zM240.66 232.53c0 8.12-6.57 14.71-14.68 14.71s-14.67-6.59-14.67-14.71c0-8.12 6.57-14.71 14.67-14.71S240.66 224.41 240.66 232.53zM165.7 217.82c8.11 0 14.68 6.59 14.68 14.71 0 8.12-6.57 14.71-14.68 14.71 -8.1 0-14.67-6.59-14.67-14.71C151.02 224.41 157.59 217.82 165.7 217.82zM182.1 295.24v-6.08c4.74 0.48 9.63 0.72 14.6 0.72 4.92 0 9.77-0.24 14.47-0.71v6.07c0 2.34 1.13 4.65 3.29 6.8 -4.51 5.1-11.02 8.08-17.9 8.11 -6.95-0.03-13.29-2.94-17.81-8.04C180.94 299.95 182.1 297.62 182.1 295.24zM196.44 316.11c0.04 0 0.07 0 0.1 0 0.04 0 0.08 0 0.12 0 9.01 0 17.51-4.05 23.17-10.95l34.12 18.7c5.32 3.08 6.26 9.7 6.35 13.38l0.01 0.27 0.05 0.26c0.46 2.23 0.98 6.56 0.75 11.21 -5.87 3.84-12.08 7.18-18.6 9.94 -14.57 6.16-30.04 9.29-46 9.29s-31.43-3.12-46-9.29c-6.52-2.75-12.71-6.08-18.58-9.92 0.03-5.83 1.07-11.09 1.1-11.2l0.05-0.35c0.28-3.01 1.46-10.34 6.31-13.66l33.92-18.59C178.96 312.06 187.45 316.11 196.44 316.11zM132.62 356.48c7.34 4.41 15.18 8.06 23.4 10.9 -8.29-1.25-14.58-2.45-17.07-3C135.36 363.6 133.51 360.4 132.62 356.48zM256.84 362.84c-2.63 3.23-6.42 4.79-11.59 4.79 -1.41 0-3.99 0.33-7.9 0.82 -1.77 0.22-3.81 0.48-6.05 0.74 10.12-2.95 19.71-7.14 28.58-12.42C259.21 359.03 258.23 361.13 256.84 362.84zM267.1 344.83c-0.14-3.99-0.67-7.05-0.84-7.99 -0.16-4.99-1.62-13.72-9.35-18.16l-37.29-20.44 -0.66-0.4h-0.24c-0.99-0.97-1.57-1.9-1.57-2.61v-7.97c27.68-4.29 43.15-18 43.15-39.06l-0.01-14.38c17.56-17.17 10.61-54.19-27.67-68.87 0-0.1 0.03-0.19 0.03-0.29 0-12.74-16.47-23.06-36.79-23.06 -20.31 0-36.79 10.32-36.79 23.06 0 0.1 0.03 0.19 0.03 0.28 -38.13 14.62-45.12 51.42-27.81 68.67l0.08 14.59c0 16.77 14.04 33.66 44.81 38.87v8.16c0 0.64-0.46 1.45-1.27 2.31l-38.47 21.08 -0.22 0.13c-6.74 4.49-8.55 13.12-9.02 17.98 -0.17 0.85-0.79 4.08-1.06 8.23 -4.63-3.44-9.03-7.23-13.16-11.37 -10.86-10.86-19.38-23.5-25.33-37.57 -6.16-14.56-9.28-30.04-9.28-46 0-15.96 3.12-31.44 9.29-46 5.95-14.07 14.48-26.71 25.33-37.57 10.86-10.86 23.5-19.38 37.57-25.33 14.57-6.16 30.05-9.28 46-9.28s31.44 3.12 46 9.29c14.07 5.95 26.72 14.48 37.57 25.33 10.86 10.86 19.38 23.5 25.33 37.57 6.16 14.57 9.29 30.05 9.29 46 0 15.96-3.12 31.44-9.28 46 -5.95 14.07-14.48 26.72-25.33 37.57C276 337.67 271.66 341.42 267.1 344.83z" />
    </g>
  </g>

</svg>
