<svg xmlns="http://www.w3.org/2000/svg" xmlns:xlink="http://www.w3.org/1999/xlink" version="1.1" xml:space="preserve"
  width="500" height="500" viewBox="-209.5 142.5 500 500">

<!-- Based on an emoji provided free by http://emojione.com -->

  <style>
    .cloth {
      fill:#C28FEF;
    }
    .line {
      fill: #454749;
    }
    .skin {
      fill: #FED0AC;
    }
    .glass {
      fill: #B4D7EE;
    }
  </style>

  <linearGradient id="SVGID_1_" gradientUnits="userSpaceOnUse" x1="40.6" y1="642.5" x2="40.6" y2="142.5"><stop offset="0.1" stop-color="#FFF391"/>
    <stop offset="0.2" stop-color="#FFE388"/>
    <stop offset="0.5" stop-color="#FFBB70"/>
    <stop offset="0.9" stop-color="#FF7A4A"/>
    <stop offset="1" stop-color="#FF6C42"/>
  </linearGradient>
  <defs>
    <ellipse id="SVGID_2_" cx="40.6" cy="392.5" rx="249.9" ry="250"/>
  </defs>
  <clipPath id="SVGID_3_"><use xlink:href="#SVGID_2_"/></clipPath>

  <g id="full_color" style="clip-path:url(#SVGID_3_);">
    <ellipse cx="40.6" cy="392.5" rx="249.9" ry="250" fill="url(#SVGID_1_)"/>
    <path class="skin" d="M41.6 552.1c17.9 0 34.4-8.6 44.6-23.2 -4.1-2.9-8.9-7.5-8.9-12.8v-58.1l-70.5 0.3v57.7c0 5.6-5.3 10.4-9.4 13.2C7.5 543.7 23.9 552.1 41.6 552.1z" />
    <ellipse cx="40.9" cy="254.1" rx="74" ry="47.4" fill="#627A82"/>
    <ellipse cx="40.9" cy="273.8" rx="74" ry="47.4" class="cloth"/>
    <path class="skin" d="M165.8 339.5c-77-77-173.3-77.5-250.3 0l0.5 85.4c0 37 36.5 78 126.9 78 85.4 0 122.9-33.6 122.9-78V339.5" />
    <path class="line" d="M76.5 452c0.5 1 1 2 1 3 0 8.4-16.8 18.8-37 18.8 -20.2 0-37-10.4-37-18.8 0-1 0.5-2.5 1-3 0 0 15.8 7.4 36 7.4C60.7 459.5 76.5 452 76.5 452" />
    <path fill="#748A93" d="M40.9 241.7c-145.6 0-176.7 117-124.4 158 0 0 25.7-43.4 79.5-64.2C136.2 281.7 97.2 241.7 40.9 241.7" />
    <path fill="#8B9FA5" d="M40.9 241.7c-56.3 0-95.3 40 44.9 93.8 53.8 20.7 79.5 64.2 79.5 64.2C217.7 359.2 186.1 241.7 40.9 241.7" />
    <path class="line" d="M94.3 465.4c-3 0-5.4-1-7.9-2 -2.5-1-4.9-2.5-6.9-4.4 -3.9-3.5-7.9-8.9-7.9-14.3 3.9 4 7.4 7.4 10.9 10.9C86.4 458.5 90.3 461.4 94.3 465.4M-13.4 465.4c3.9-3.9 8.4-6.4 11.8-9.9 3.9-3.5 7.4-6.4 10.9-10.9 0 5.9-3.5 10.9-7.9 14.3 -2 2-4.4 3.5-6.9 4.4C-7.4 464.4-10.4 465.4-13.4 465.4M-29.6 399.2l-1.5-14.8c3.9-0.5 9.4-1.5 15.3-2.5 29.1-5.4 77.5-14.8 130.3 3l-4.9 13.8c-48.9-16.8-94.8-7.9-122.4-2.5C-19.3 397.7-25.2 398.7-29.6 399.2" />
    <ellipse class="line" cx="-19.8" cy="392.3" rx="44.4" ry="44.4" />
    <ellipse class="glass" cx="-19.8" cy="392.3" rx="29.6" ry="29.6" />
    <ellipse class="line" cx="101.7" cy="392.3" rx="44.4" ry="44.4" />
    <ellipse class="glass" cx="101.7" cy="392.3" rx="29.6" ry="29.6" />
    <path class="cloth" d="M160.4 569.5L85.3 528.3c-0.1-0.1-0.3-0.2-0.5-0.3 -9.9 14.2-25.8 22.5-43.2 22.5 -17.3 0-33.1-8.3-43-22.2l-75 41.1c-11.8 7.9-14.8 23.9-15.5 32.1v3.7c38.3 23.9 83.6 37.7 132.1 37.7 50.2 0 96.9-14.8 136-40.2v-1.2C176 593.6 173.9 577.3 160.4 569.5z" />
  </g>
</svg>
