<svg xmlns="http://www.w3.org/2000/svg" version="1.1" x="0" y="0" width="500" height="500" viewBox="310.5 142.5 511 511" xml:space="preserve">
<!-- Based on an emoji provided free by http://emojione.com -->

  <style>
    .outline {
      fill: none;
      stroke-width: 12;
      stroke: #000;
    }
    .fill {
      fill: #000;
    }
  </style>

  <path class="fill" d="M595.1 445.8c0.1 3 1.2 5.9 2.8 8.4 -5.2 1.9-18.1 6.1-33.5 6.1 -15.3 0-28.3-4.1-33.6-6.1 1.6-2.6 2.7-5.4 2.8-8.5 -3.8 4-7.2 7.3-11.1 10.5 -3.8 3.2-7.8 6.1-12 9.8 2.8 0 5.6-0.7 8.1-1.8 2.6-1.1 4.9-2.5 7.1-4.3 0.7-0.5 1.3-1.2 1.9-1.8 2.3 7.8 17.8 16.3 36.7 16.3 18.8 0 34.4-8.5 36.7-16.3 0.6 0.6 1.2 1.2 1.9 1.8 2.2 1.7 4.5 3.2 7.1 4.3 2.5 1.1 5.2 1.8 8.1 1.8 -4.2-3.7-8.2-6.6-12-9.8C602.3 453.1 598.9 449.9 595.1 445.8" />
  <path class="outline" d="M601.5 521.1v-18.9c-11 1.4-22.8 2.1-35.1 2.1 -12.4 0-24.3-0.8-35.4-2.2v19c0 5.6-5.3 10.4-9.4 13.2 10.2 14.4 26.5 22.8 44.3 22.8 17.9 0 34.4-8.6 44.6-23.2C606.4 531 601.5 526.4 601.5 521.1zM684.6 573.5l-75.1-41.2c-0.1-0.1-0.3-0.2-0.5-0.3 -0.1 0.1-0.1 0.2-0.2 0.3 0.7 0.6 1.4 1.1 2.1 1.6 -10.2 14.6-26.7 23.2-44.6 23.2 -17.8 0-34.1-8.5-44.3-22.8 0.5-0.3 1-0.7 1.5-1.1 -0.2-0.3-0.4-0.6-0.6-0.9l-75 41.1c-11.8 7.9-14.8 23.9-15.6 32.1v3.2c38.3 23.9 83.6 37.7 132.2 37.7 50.2 0 96.9-14.8 136-40.2v-0.7C700.3 597.6 698.2 581.3 684.6 573.5z" />
  <path class="fill" d="M638.7 258.7c0-0.2 0.1-0.4 0.1-0.6 0-25.6-33.2-46.4-74.1-46.4 -40.9 0-74.1 20.8-74.1 46.4 0 0.2 0.1 0.4 0.1 0.6 -76.8 29.4-90.8 103.5-56 138.3l0.2 29.4c0 40.6 40.8 81.6 131.9 81.6 81.2 0 127.7-29.7 127.7-81.6l0-29C729.8 362.8 715.8 288.3 638.7 258.7M654.9 394.8c0 16.4-13.2 29.6-29.6 29.6s-29.5-13.3-29.5-29.6c0-16.4 13.2-29.6 29.5-29.6S654.9 378.4 654.9 394.8M564.6 231.2c28.2 0 52.7 9.9 65.2 24.4 -18.5-5.9-40.1-9.4-65.2-9.4 -27.4 0-59.7 7.6-65.2 9.4C512 241.1 536.5 231.2 564.6 231.2M519.7 338.7c13.1-5 36.4-14.1 46.5-18.8 12.1 6 26.4 12.3 43.5 18.8 9.9 3.8 18.8 8.3 26.9 13.1 -3.6-0.9-7.3-1.5-11.1-1.5 -18.2 0-33.9 11-40.7 26.8 -14.2-0.7-27.5-0.1-39.6 1.2 -6.5-16.4-22.5-28-41.2-28 -3.9 0-7.6 0.5-11.2 1.5C500.8 347 509.7 342.5 519.7 338.7M504 365.2c16.3 0 29.6 13.3 29.6 29.6 0 16.4-13.2 29.6-29.6 29.6 -16.3 0-29.5-13.3-29.5-29.6C474.4 378.4 487.7 365.2 504 365.2M566.7 498.2c-84.3 0-122.1-36.1-122.1-71.9l-0.2-31c4.2-5.6 11.4-14.3 21.6-23.6 -4.1 6.7-6.5 14.6-6.5 23 0 24.5 19.8 44.4 44.3 44.4 24.5 0 44.3-19.9 44.3-44.4 0-0.6-0.1-1.2-0.1-1.8 10.2-1 21.3-1.6 33-1.1 -0.1 1-0.1 2-0.1 3 0 24.5 19.9 44.4 44.3 44.4 24.5 0 44.3-19.9 44.3-44.4 0-8.4-2.4-16.3-6.4-23 9.9 9 17 17.4 21.2 23l0 31.5C684.5 472 641.6 498.2 566.7 498.2" />
  <circle class="outline" cx="566" cy="398" r="250" />
</svg>
